<?xml version="1.0" encoding="utf-8"?>
<svg id="master-artboard" viewBox="0 0 841.9 595.3" version="1.1" xmlns="http://www.w3.org/2000/svg" x="0px" y="0px" style="enable-background:new 0 0 841.9 595.3;" width="841.9000244140625px" height="595.2999877929688px" xmlns:xlink="http://www.w3.org/1999/xlink">

<defs>
		<path d="M 0 0 H 841.900024 V 595.299988 H 0 V 0 Z" id="XMLID_5_"/>
	</defs><clipPath id="XMLID_15_">
		<use style="overflow:visible;" xlink:href="#XMLID_5_"/>
	</clipPath><linearGradient id="XMLID_16_" gradientUnits="userSpaceOnUse" x1="420.9451" y1="8.6049" x2="420.9451" y2="571.1488" style="clip-path: url('#XMLID_15_');">
			<stop offset="0" style="stop-color:#F2F2F2"/>
			<stop offset="0.416" style="stop-color:#EFEFF0"/>
			<stop offset="0.6765" style="stop-color:#E7E7E8"/>
			<stop offset="0.8936" style="stop-color:#D8D9DA"/>
			<stop offset="1" style="stop-color:#CECFD1"/>
		</linearGradient><path d="M 0 0 H 841.900024 V 595.299988 H 0 V 0 Z" id="XMLID_1_" class="st1" style="fill: rgb(244, 195, 188); clip-path: url('#XMLID_15_');" transform="matrix(1, 0, 0, 1, 1.1368683772161603e-13, 0)"/><linearGradient id="XMLID_17_" gradientUnits="userSpaceOnUse" x1="57.7263" y1="106.5164" x2="19.7263" y2="326.5164" style="clip-path: url('#XMLID_15_');">
			<stop offset="0" style="stop-color:#CECFD1"/>
			<stop offset="0.6437" style="stop-color:#F1F1F2"/>
			<stop offset="1" style="stop-color:#FFFFFF"/>
		</linearGradient><path id="XMLID_2_" class="st2" d="M-31.9,435.7C37.3,335.6,119.3,239,214.1,162.7c-36.8-18.3-69.5-44.8-95.1-77&#10;&#9;&#9;&#9;C72.4,27.2-18.5,25.5-91.5,8.9L-31.9,435.7z" style="fill: rgb(255, 255, 255); clip-path: url('#XMLID_15_');" transform="matrix(1, 0, 0, 1, 1.1368683772161603e-13, 0)"/><linearGradient id="XMLID_18_" gradientUnits="userSpaceOnUse" x1="850.1561" y1="272.1174" x2="812.6638" y2="402.2828" style="clip-path: url('#XMLID_15_');">
			<stop offset="0" style="stop-color:#FFFFFF"/>
			<stop offset="0.3563" style="stop-color:#F1F1F2"/>
			<stop offset="1" style="stop-color:#CECFD1"/>
		</linearGradient><path id="XMLID_10_" class="st3" d="M728.5,358c113.4-77.9,146.1-163.4,145.6-163.4v331L728.5,358z" style="fill: rgb(255, 255, 255); clip-path: url('#XMLID_15_');" transform="matrix(1, 0, 0, 1, 1.1368683772161603e-13, 0)"/><linearGradient id="XMLID_19_" gradientUnits="userSpaceOnUse" x1="660.6295" y1="335.6484" x2="777.6236" y2="569.6367" gradientTransform="matrix(0.9308 0.3656 -0.3656 0.9308 221.9429 -239.5129)" style="clip-path: url('#XMLID_15_');">
			<stop offset="0" style="stop-color:#FFFFFF"/>
			<stop offset="0.3563" style="stop-color:#F1F1F2"/>
			<stop offset="1" style="stop-color:#CECFD1"/>
		</linearGradient><path id="XMLID_14_" class="st4" d="M659.8,647c-42.4-84.4-72.2-168.2-102.5-257.7c82.8-0.4,165.6-17.6,241.8-50.1&#10;&#9;&#9;&#9;c0,0,63.7,150.2,100.7,220.8l-59.7,151.9L659.8,647z" style="fill: url('#XMLID_19_'); clip-path: url('#XMLID_15_');" transform="matrix(1, 0, 0, 1, 1.1368683772161603e-13, 0)"/><linearGradient id="XMLID_20_" gradientUnits="userSpaceOnUse" x1="671.5379" y1="305.6121" x2="788.532" y2="539.6004" gradientTransform="matrix(0.9308 0.3656 -0.3656 0.9308 221.9429 -239.5129)" style="clip-path: url('#XMLID_15_');">
			<stop offset="0" style="stop-color:#FFFFFF"/>
			<stop offset="0.3563" style="stop-color:#F1F1F2"/>
			<stop offset="1" style="stop-color:#CECFD1"/>
		</linearGradient><path id="XMLID_13_" class="st5" d="M680.9,623.1c-42.4-84.4-72.2-168.2-102.5-257.7c82.8-0.4,165.6-17.6,241.8-50.1&#10;&#9;&#9;&#9;c0,0,63.7,150.2,100.7,220.8L861.2,688L680.9,623.1z" style="fill: url('#XMLID_20_'); clip-path: url('#XMLID_15_');" transform="matrix(1, 0, 0, 1, 1.1368683772161603e-13, 0)"/><linearGradient id="XMLID_21_" gradientUnits="userSpaceOnUse" x1="646.0392" y1="313.1097" x2="763.0333" y2="547.098" style="clip-path: url('#XMLID_15_');">
			<stop offset="0" style="stop-color:#FFFFFF"/>
			<stop offset="0.3563" style="stop-color:#F1F1F2"/>
			<stop offset="1" style="stop-color:#CECFD1"/>
		</linearGradient><path id="XMLID_9_" class="st6" d="M717,642.6c-70.3-63.1-128.7-130.2-189.6-202.4c77-30.7,147.7-76.9,206.7-135&#10;&#9;&#9;&#9;c0,0,114.2,116.5,174.4,168.7v163.2L717,642.6z" style="fill: rgb(244, 92, 44); clip-path: url('#XMLID_15_');" transform="matrix(1, 0, 0, 1, 1.1368683772161603e-13, 0)"/><linearGradient id="XMLID_22_" gradientUnits="userSpaceOnUse" x1="78.6571" y1="-43.7253" x2="252.9061" y2="136.0667" style="clip-path: url('#XMLID_15_');">
			<stop offset="0" style="stop-color:#CECFD1"/>
			<stop offset="0.6437" style="stop-color:#F1F1F2"/>
			<stop offset="1" style="stop-color:#FFFFFF"/>
		</linearGradient><linearGradient id="XMLID_23_" gradientUnits="userSpaceOnUse" x1="498.4227" y1="396.5943" x2="448.6358" y2="615.5178" style="clip-path: url('#XMLID_15_');">
			<stop offset="0" style="stop-color:#FFFFFF"/>
			<stop offset="0.3563" style="stop-color:#F1F1F2"/>
			<stop offset="1" style="stop-color:#CECFD1"/>
		</linearGradient><path id="XMLID_8_" class="st8" d="M584.4,658c32.3-73,53-148.7,64.7-227.7c-98.1-14.2-194.8-45.7-279.9-96.4&#10;&#9;&#9;&#9;c-9.4,39.4-24,77.5-43.4,113.1c20,68.3,37.9,135,66.6,200.1L584.4,658z" style="fill: rgb(244, 92, 44); clip-path: url('#XMLID_15_');" transform="matrix(1, 0, 0, 1, 1.1368683772161603e-13, 0)"/><linearGradient id="XMLID_24_" gradientUnits="userSpaceOnUse" x1="398.1328" y1="470.0573" x2="356.1328" y2="515.0573" style="clip-path: url('#XMLID_15_');">
			<stop offset="0" style="stop-color:#FFFFFF"/>
			<stop offset="0.3563" style="stop-color:#F1F1F2"/>
			<stop offset="1" style="stop-color:#CECFD1"/>
		</linearGradient><path id="XMLID_7_" class="st9" d="M440.9,658.6c38.1-27.3,70.7-59.7,100-96.3c-101-51.8-189-120-260.5-208.2&#10;&#9;&#9;&#9;c-12,11-24.1,21.9-36.1,32.9c13.4,58.5,23.8,117.5,53.6,169.5C327.9,608.5,381.7,649.1,440.9,658.6z" style="fill: rgb(255, 255, 255); clip-path: url('#XMLID_15_');" transform="matrix(1, 0, 0, 1, 1.1368683772161603e-13, 0)"/><linearGradient id="XMLID_25_" gradientUnits="userSpaceOnUse" x1="323.3172" y1="424.5149" x2="63.8302" y2="643.5039" style="clip-path: url('#XMLID_15_');">
			<stop offset="0" style="stop-color:#FFFFFF"/>
			<stop offset="0.3563" style="stop-color:#F1F1F2"/>
			<stop offset="1" style="stop-color:#CECFD1"/>
		</linearGradient>
<path id="XMLID_6_" class="st10" d="M185.9,719.1c104.6-29.9,199.9-87.3,277.5-163.5c-90.8-56.5-166-131.3-226.2-219.6&#10;&#9;&#9;&#9;C157.8,407.2,60.3,458.1-43.6,482.3v156.3L185.9,719.1z" style="fill: rgb(244, 92, 44); clip-path: url('#XMLID_15_');" transform="matrix(1, 0, 0, 1, 1.1368683772161603e-13, 0)"/><path d="M 32.860595703125 280.49200439453125 L 32.860595703125 280.49200439453125 L 118.92877960205078 123.45712280273438" style="fill: rgb(244, 92, 44); fill-opacity: 1; stroke: rgb(0, 0, 0); stroke-opacity: 1; stroke-width: 0; paint-order: fill;"/><path id="XMLID_4_" class="st7" d="M-57.9,4.4c46.7,85.5,117.3,157.7,201.7,206.4c58.8-73,133.5-133.4,211.1-186&#10;&#9;&#9;&#9;c-54-28-100-69.4-135.7-118.6L-57.9,4.4z" style="fill: rgb(244, 92, 44); clip-path: url('#XMLID_15_');" transform="matrix(1, 0, 0, 1, 1.1368683772161603e-13, 0)"/></svg>